{"title":"The Strangers 2008 DVDRip BigPerm LKRG[ExtraTorrent]","uid":5640722,"size":357133690,"categoryP":"video","categoryS":"movies","magnet":"?xt=urn:btih:65342444a9a3f76a772b2b13b1f4a7ff4faba31c&amp;dn=The+Strangers+2008+DVDRip+BigPerm+LKRG%5BExtraTorrent%5D&amp;tr=udp%3A%2F%2Ftracker.openbittorrent.com%3A80&amp;tr=udp%3A%2F%2Fopen.demonii.com%3A1337&amp;tr=udp%3A%2F%2Ftracker.coppersurfer.tk%3A6969&amp;tr=udp%3A%2F%2Fexodus.desync.com%3A6969","seeders":2,"leechers":0,"uploader":"raymondhome","files":-1,"time":1277090199,"description":"Love for All and Sharing is the first step to solving all the problems of humanity.\n\nWebsites I want to share.\n\n    &lt;a href=&quot;\nhttp://www.shareintl.org/&quot; rel=&quot;nofollow&quot; target=&quot;_NEW&quot;&gt;\nhttp://www.shareintl.org/&lt;/a&gt;\n\n    &lt;a href=&quot;\nhttp://www.lightmiddleway.com&quot; rel=&quot;nofollow&quot; target=&quot;_NEW&quot;&gt;\nhttp://www.lightmiddleway.com&lt;/a&gt;\n\n\nThank you very much\n\nNo credit for me...credit to EVERYONE for sharing\n &lt;a href=&quot;\nhttp://thepiratebay.se/user/raymondhome/&quot; rel=&quot;nofollow&quot; target=&quot;_NEW&quot;&gt;\nhttp://thepiratebay.se/user/raymondhome/&lt;/a&gt;\n\nPLOT\nA young couple staying in an isolated vacation home are terrorized by three unknown assailants.\n\nFormat : MPEG-4\nDuration : 1h 27mn\nOverall bit rate : 543 Kbps\n\nVideo:\nID : 1\nFormat : AVC\nFormat/Info : Advanced Video Codec\nFormat profile : &lt;a class=&quot;__cf_email__&quot; href=&quot;/cdn-cgi/l/email-protection&quot; data-cfemail=&quot;337e525a5d737f001d03&quot;&gt;[email&amp;#160;protected]&lt;/a&gt;&lt;script cf-hash='f9e31' type=&quot;text/javascript&quot;&gt;\n/* &lt;![CDATA[ */!function(){try{var t=&quot;currentScript&quot;in document?document.currentScript:function(){for(var t=document.getElementsByTagName(&quot;script&quot;),e=t.length;e--;)if(t[e].getAttribute(&quot;cf-hash&quot;))return t[e]}();if(t&amp;&amp;t.previousSibling){var e,r,n,i,c=t.previousSibling,a=c.getAttribute(&quot;data-cfemail&quot;);if(a){for(e=&quot;&quot;,r=parseInt(a.substr(0,2),16),n=2;a.length-n;n+=2)i=parseInt(a.substr(n,2),16)^r,e+=String.fromCharCode(i);e=document.createTextNode(e),c.parentNode.replaceChild(e,c)}}}catch(u){}}();/* ]]&gt; */&lt;/script&gt;\nFormat settings, CABAC : Yes\nFormat settings, ReFrames : 2 frames\nCodec ID : avc1\nCodec ID/Info : Advanced Video Coding\nDuration : 1h 27mn\nBit rate mode : Variable\nBit rate : 380 Kbps\nWidth : 718 pixels\nHeight : 362 pixels\nDisplay aspect ratio : 2.35:1\nFrame rate mode : Variable\nFrame rate : 23.976 fps\nMinimum frame rate : 11.760 fps\nMaximum frame rate : 29.970 fps\nResolution : 8 bits\nColorimetry : 4:2:0\nScan type : Progressive\nBits/(Pixel*Frame) : 0.061\nStream size : 238 MiB (70%)\nWriting library : x264 core 79\n\nAudio:\nID : 2\nFormat : AAC\nFormat/Info : Advanced Audio Codec\nFormat version : Version 4\nFormat profile : LC\nFormat settings, SBR : No\nCodec ID : 40\nDuration : 1h 27mn\nBit rate mode : Variable\nBit rate : 159 Kbps\nMaximum bit rate : 232 Kbps\nChannel(s) : 2 channels\nChannel positions : Front: L R\nSampling rate : 48.0 KHz\nStream size : 99.3 MiB (29%)\nLanguage : English\n\ncredit BigPerm1828 BIG BIG BIG TIME &amp; to all the people who made it possible for us to share this...especially EVERYONE involve in the production of the movie...IF YOU LIKE IT...BUY IT :)\n\n*****help what we can with others in need...the world is ONE big family*****","torrent":{"xt":"urn:btih:65342444a9a3f76a772b2b13b1f4a7ff4faba31c","amp;dn":"The+Strangers+2008+DVDRip+BigPerm+LKRG%5BExtraTorrent%5D","amp;tr":["udp%3A%2F%2Ftracker.openbittorrent.com%3A80","udp%3A%2F%2Fopen.demonii.com%3A1337","udp%3A%2F%2Ftracker.coppersurfer.tk%3A6969","udp%3A%2F%2Fexodus.desync.com%3A6969"],"infoHash":"65342444a9a3f76a772b2b13b1f4a7ff4faba31c","infoHashBuffer":{"type":"Buffer","data":[101,52,36,68,169,163,247,106,119,43,43,19,177,244,167,255,79,171,163,28]},"announce":[],"urlList":[]}}